<svg width="152" height="39" viewBox="0 0 152 39" fill="none" xmlns="http://www.w3.org/2000/svg">
<path fill-rule="evenodd" clip-rule="evenodd" d="M23.024 16.8501H25.741C28.549 16.8501 30.066 20.1421 28.237 22.2751L25.577 25.3751C25.8651 27.2137 26.836 28.876 28.296 30.0301C29.7574 31.1848 31.6 31.7468 33.457 31.6041C35.3141 31.4614 37.0492 30.6245 38.317 29.2601C39.5838 27.8962 40.2891 26.1045 40.292 24.2431C40.2918 23.9193 40.3554 23.5986 40.4792 23.2994C40.6031 23.0002 40.7848 22.7284 41.0138 22.4995C41.2429 22.2706 41.5149 22.0892 41.8142 21.9655C42.1135 21.8419 42.4342 21.7786 42.758 21.7791C43.4117 21.7794 44.0386 22.0389 44.5011 22.5009C44.9636 22.9628 45.224 23.5894 45.225 24.2431C45.2248 26.829 44.4103 29.3492 42.897 31.4461C41.764 33.0129 40.2789 34.2917 38.5612 35.1796C36.8436 36.0674 34.9414 36.5395 33.008 36.5578C31.0745 36.5761 29.1638 36.1401 27.4297 35.2849C25.6956 34.4297 24.1865 33.1792 23.024 31.6341C21.8616 33.1792 20.3525 34.4297 18.6184 35.2849C16.8842 36.1401 14.9735 36.5761 13.0401 36.5578C11.1066 36.5395 9.20446 36.0674 7.48682 35.1796C5.76919 34.2917 4.28405 33.0129 3.15102 31.4461C1.63737 29.3493 0.822497 26.8291 0.822022 24.2431C0.821759 23.9192 0.885411 23.5984 1.00933 23.2992C1.13325 22.9999 1.31501 22.728 1.54418 22.4991C1.77336 22.2702 2.04545 22.0888 2.34486 21.9653C2.64427 21.8417 2.96512 21.7784 3.28902 21.7791C3.94271 21.7794 4.56959 22.0389 5.0321 22.5009C5.49461 22.9628 5.75496 23.5894 5.75602 24.2431C5.75325 26.1075 6.45555 27.9039 7.72202 29.2721C8.66766 30.2935 9.88206 31.0276 11.2259 31.3903C12.5698 31.753 13.9886 31.7295 15.3198 31.3226C16.6509 30.9156 17.8403 30.1417 18.7516 29.0895C19.6629 28.0374 20.2592 26.7497 20.472 25.3741L17.81 22.2741C15.982 20.1421 17.498 16.8511 20.31 16.8511H23.024V16.8501Z" fill="#9C9C9C"/>
<path d="M34.5349 10.2798C35.1825 10.2804 35.8238 10.1533 36.4223 9.9059C37.0207 9.6585 37.5646 9.29562 38.0228 8.83799C38.481 8.38035 38.8445 7.83693 39.0927 7.23877C39.3408 6.6406 39.4686 5.99942 39.4689 5.35183C39.4686 4.70424 39.3408 4.06306 39.0927 3.46489C38.8445 2.86673 38.481 2.3233 38.0228 1.86567C37.5646 1.40804 37.0207 1.04516 36.4223 0.797764C35.8238 0.550368 35.1825 0.423304 34.5349 0.42383C33.8874 0.423436 33.2461 0.550597 32.6478 0.798051C32.0494 1.04551 31.5057 1.40841 31.0476 1.86603C30.5895 2.32365 30.2261 2.86702 29.978 3.46512C29.73 4.06322 29.6021 4.70433 29.6019 5.35183C29.6021 5.99933 29.73 6.64044 29.978 7.23854C30.2261 7.83664 30.5895 8.38001 31.0476 8.83763C31.5057 9.29525 32.0494 9.65815 32.6478 9.90561C33.2461 10.1531 33.8874 10.2802 34.5349 10.2798ZM11.5119 10.2798C12.1594 10.2802 12.8006 10.1531 13.399 9.90561C13.9973 9.65815 14.5411 9.29525 14.9991 8.83763C15.4572 8.38001 15.8207 7.83664 16.0687 7.23854C16.3168 6.64044 16.4446 5.99933 16.4449 5.35183C16.4446 4.70433 16.3168 4.06322 16.0687 3.46512C15.8207 2.86702 15.4572 2.32365 14.9991 1.86603C14.5411 1.40841 13.9973 1.04551 13.399 0.798051C12.8006 0.550597 12.1594 0.423436 11.5119 0.42383C10.8643 0.423304 10.223 0.550368 9.62449 0.797764C9.02602 1.04516 8.48216 1.40804 8.02397 1.86567C7.56578 2.3233 7.20223 2.86673 6.95411 3.46489C6.70599 4.06306 6.57814 4.70424 6.57788 5.35183C6.57814 5.99942 6.70599 6.6406 6.95411 7.23877C7.20223 7.83693 7.56578 8.38035 8.02397 8.83799C8.48216 9.29562 9.02602 9.6585 9.62449 9.9059C10.223 10.1533 10.8643 10.2804 11.5119 10.2798ZM79.4449 1.62783C80.2049 1.62783 80.8289 1.84483 81.3169 2.27883C81.8049 2.71283 82.0489 3.28283 82.0489 3.98883V28.3238C82.0489 29.0568 81.8189 29.6398 81.3569 30.0738C80.8969 30.5078 80.2859 30.7248 79.5269 30.7248C78.7669 30.7248 78.1569 30.5078 77.6949 30.0748C77.2339 29.6398 77.0029 29.0568 77.0029 28.3248V27.3068C76.4059 28.4188 75.5379 29.2868 74.3979 29.9108C73.2859 30.5348 72.0109 30.8468 70.5729 30.8468C68.8629 30.8468 67.3309 30.4128 65.9749 29.5448C64.6449 28.6768 63.6009 27.4558 62.8409 25.8818C62.1079 24.2818 61.7419 22.4508 61.7419 20.3888C61.7419 18.3268 62.1079 16.5228 62.8409 14.9758C63.6009 13.4298 64.6449 12.2358 65.9749 11.3948C67.3039 10.5538 68.8369 10.1328 70.5729 10.1328C72.0109 10.1328 73.2859 10.4318 74.3989 11.0288C75.4834 11.5986 76.3751 12.4764 76.9619 13.5518V3.90683C76.9619 3.22883 77.1789 2.68583 77.6129 2.27883C78.0749 1.84483 78.6849 1.62783 79.4449 1.62783ZM71.9159 26.8998C73.5439 26.8998 74.7919 26.3438 75.6599 25.2308C76.5549 24.1188 77.0029 22.5308 77.0029 20.4698C77.0029 18.4078 76.5549 16.8338 75.6599 15.7498C74.7919 14.6368 73.5579 14.0798 71.9569 14.0798C70.3289 14.0798 69.0669 14.6228 68.1719 15.7088C67.2769 16.7938 66.8289 18.3538 66.8289 20.3888C66.8289 22.4508 67.2769 24.0508 68.1719 25.1908C69.0669 26.3308 70.3149 26.8998 71.9159 26.8998ZM96.3569 30.8468C94.3229 30.8468 92.5319 30.4268 90.9859 29.5858C89.4659 28.7448 88.2859 27.5378 87.4449 25.9638C86.6039 24.3898 86.1829 22.5588 86.1829 20.4698C86.1829 18.3808 86.6029 16.5628 87.4449 15.0168C88.2859 13.4428 89.4659 12.2358 90.9849 11.3948C92.5319 10.5538 94.3229 10.1328 96.3569 10.1328C98.3919 10.1328 100.169 10.5528 101.688 11.3948C103.211 12.2115 104.447 13.4757 105.229 15.0168C106.07 16.5628 106.491 18.3808 106.491 20.4698C106.491 22.5598 106.07 24.3898 105.229 25.9638C104.447 27.505 103.211 28.7692 101.688 29.5858C100.169 30.4258 98.3919 30.8468 96.3579 30.8468H96.3569ZM96.3169 26.8998C97.9719 26.8998 99.2329 26.3568 100.101 25.2718C100.97 24.1868 101.404 22.5858 101.404 20.4698C101.404 18.3808 100.97 16.7938 100.101 15.7088C99.2329 14.5958 97.9849 14.0398 96.3569 14.0398C94.7299 14.0398 93.4669 14.5958 92.5729 15.7088C91.7049 16.7938 91.2699 18.3808 91.2699 20.4698C91.2699 22.5858 91.7039 24.1868 92.5729 25.2718C93.4409 26.3568 94.6889 26.8998 96.3169 26.8998ZM127.538 10.2148C128.298 10.2148 128.908 10.4318 129.369 10.8648C129.831 11.2998 130.061 11.8828 130.061 12.6148V28.6898C130.061 31.8098 129.193 34.1698 127.457 35.7718C125.72 37.3718 123.157 38.1718 119.765 38.1718C116.808 38.1718 114.339 37.6168 112.359 36.5038C111.355 35.9068 110.853 35.1878 110.853 34.3468C110.853 33.7498 110.989 33.2758 111.26 32.9228C111.558 32.5698 111.938 32.3928 112.399 32.3928C112.644 32.3928 112.942 32.4478 113.295 32.5568C113.647 32.6918 114.014 32.8418 114.393 33.0038C115.243 33.3654 116.112 33.6779 116.998 33.9398C117.785 34.1568 118.68 34.2658 119.684 34.2658C123.238 34.2658 125.015 32.5298 125.015 29.0558V26.4518C124.418 27.5648 123.55 28.4318 122.411 29.0568C121.271 29.6538 119.969 29.9518 118.504 29.9518C116.767 29.9518 115.221 29.5448 113.864 28.7318C112.535 27.8898 111.491 26.7238 110.731 25.2318C109.971 23.7388 109.591 22.0168 109.591 20.0628C109.591 18.1098 109.958 16.3868 110.69 14.8948C111.45 13.3748 112.508 12.2088 113.864 11.3948C115.221 10.5538 116.767 10.1328 118.504 10.1328C119.969 10.1328 121.271 10.4448 122.411 11.0688C123.521 11.637 124.43 12.5319 125.015 13.6328V12.5748C125.015 11.8698 125.246 11.2998 125.707 10.8648C126.168 10.4318 126.779 10.2148 127.538 10.2148ZM119.847 26.0048C121.475 26.0048 122.736 25.4748 123.631 24.4178C124.554 23.3588 125.015 21.9078 125.015 20.0628C125.015 18.1908 124.554 16.7258 123.631 15.6678C122.736 14.6098 121.475 14.0808 119.847 14.0808C118.246 14.0808 116.984 14.6098 116.062 15.6678C115.14 16.7258 114.678 18.1908 114.678 20.0628C114.678 21.9078 115.14 23.3588 116.062 24.4178C116.984 25.4758 118.246 26.0048 119.847 26.0048ZM142.533 30.8468C139.576 30.8468 137.189 30.2638 135.371 29.0968C134.503 28.5818 134.069 27.8488 134.069 26.8998C134.069 26.3568 134.218 25.9228 134.516 25.5978C134.815 25.2448 135.181 25.0678 135.615 25.0678C136.076 25.0678 136.714 25.2858 137.528 25.7198C138.396 26.1268 139.183 26.4388 139.888 26.6558C140.621 26.8728 141.543 26.9808 142.655 26.9808C143.795 26.9808 144.677 26.7908 145.301 26.4108C145.952 26.0308 146.277 25.5028 146.277 24.8238C146.277 24.3638 146.142 23.9968 145.87 23.7258C145.626 23.4538 145.165 23.2098 144.487 22.9928C143.835 22.7488 142.832 22.4778 141.475 22.1788C139.061 21.6908 137.324 20.9988 136.266 20.1038C135.235 19.2088 134.72 17.9738 134.72 16.4008C134.72 15.2068 135.072 14.1348 135.778 13.1848C136.483 12.2088 137.446 11.4628 138.667 10.9468C139.915 10.4048 141.326 10.1328 142.899 10.1328C144.039 10.1328 145.138 10.2828 146.196 10.5808C147.205 10.8311 148.167 11.2431 149.045 11.8008C149.913 12.3438 150.347 13.0628 150.347 13.9588C150.347 14.5008 150.198 14.9628 149.899 15.3418C149.601 15.6948 149.234 15.8718 148.8 15.8718C148.502 15.8718 148.203 15.8168 147.905 15.7088C147.548 15.5271 147.195 15.337 146.847 15.1388C146.06 14.7318 145.382 14.4338 144.812 14.2438C144.242 14.0268 143.537 13.9178 142.696 13.9178C141.692 13.9178 140.892 14.1218 140.295 14.5278C139.725 14.9348 139.44 15.4918 139.44 16.1968C139.44 16.8748 139.739 17.3908 140.336 17.7428C140.933 18.0958 142.086 18.4488 143.795 18.8018C145.613 19.1818 147.037 19.6148 148.068 20.1038C149.099 20.5918 149.831 21.2028 150.265 21.9348C150.727 22.6678 150.957 23.6038 150.957 24.7428C150.957 26.5878 150.184 28.0668 148.638 29.1788C147.118 30.2908 145.083 30.8468 142.533 30.8468Z" fill="#9C9C9C"/>
</svg>
